<?xml version="1.0" encoding="UTF-8"?>
<svg id="Layer_2" data-name="Layer 2" xmlns="http://www.w3.org/2000/svg" xmlns:xlink="http://www.w3.org/1999/xlink" viewBox="0 0 208.76 215.72">
  <defs>
    <style>
      .cls-1 {
        fill: url(#linear-gradient-2);
      }

      .cls-2 {
        fill: url(#linear-gradient-3);
      }

      .cls-3 {
        fill: url(#linear-gradient);
      }
    </style>
    <linearGradient id="linear-gradient" x1="132.03" y1="279.73" x2="75.04" y2="52.15" gradientUnits="userSpaceOnUse">
      <stop offset="0" stop-color="#055df2"/>
      <stop offset="1" stop-color="#05a7f2"/>
    </linearGradient>
    <linearGradient id="linear-gradient-2" x1="52.18" y1="120.92" x2="52.18" y2="102.49" xlink:href="#linear-gradient"/>
    <linearGradient id="linear-gradient-3" x1="92.22" y1="175.8" x2="116.08" y2="175.8" xlink:href="#linear-gradient"/>
  </defs>
  <g id="Layer_1-2" data-name="Layer 1">
    <g>
      <path class="cls-3" d="M208.76,134.54v69.59c0,6.41-5.19,11.6-11.6,11.6H11.6c-6.41,0-11.6-5.19-11.6-11.6v-69.59c0-6.41,5.19-11.6,11.6-11.6h-2.75c1.95,0,3.91-.56,5.45-1.76,3.93-3.04,5.89-7.98,5.89-13.32s-1.96-10.28-5.89-13.32c-1.54-1.2-3.5-1.76-5.45-1.76h2.75c-6.41,0-11.6-5.19-11.6-11.6V11.6C0,5.19,5.19,0,11.6,0H81.19c6.41,0,11.6,5.19,11.6,11.6v122.94c0,5,3.56,9.45,8.5,10.19,1.02,.15,2.05,.23,3.1,.23s2.08-.08,3.1-.23c4.95-.74,8.5-5.19,8.5-10.19h0c0-6.41,5.19-11.6,11.6-11.6h69.59c6.41,0,11.6,5.19,11.6,11.6Z"/>
      <path class="cls-1" d="M13.25,122.94c-.53,0-.77-.65-.37-.99,4.14-3.44,15.85-15.37-1.29-29.16-1.87-1.5,81.19,0,81.19,0v30.15H13.25Z"/>
      <path class="cls-2" d="M116.46,137.53c0-.52-.51-.76-.78-.36-1.65,2.5-5.82,7.81-11.3,7.63-3.44-.12-7.39-2.4-11.55-8.9-1.18-1.84,0,79.82,0,79.82h23.63v-78.19Z"/>
    </g>
  </g>
</svg>