<?xml version="1.0" encoding="UTF-8"?>
<svg id="Layer_2" data-name="Layer 2" xmlns="http://www.w3.org/2000/svg" xmlns:xlink="http://www.w3.org/1999/xlink" viewBox="0 0 142.06 63.48">
  <defs>
    <style>
      .cls-1 {
        fill: url(#linear-gradient-2);
      }

      .cls-2 {
        font-family: Roboto-Bold, Roboto;
        font-size: 37.58px;
        font-weight: 700;
      }

      .cls-3 {
        fill: url(#linear-gradient-3);
      }

      .cls-4 {
        fill: url(#linear-gradient);
      }
    </style>
    <linearGradient id="linear-gradient" x1="91.54" y1="82.3" x2="74.78" y2="15.35" gradientUnits="userSpaceOnUse">
      <stop offset="0" stop-color="#055df2"/>
      <stop offset="1" stop-color="#05a7f2"/>
    </linearGradient>
    <linearGradient id="linear-gradient-2" x1="68.07" y1="35.58" x2="68.07" y2="30.16" xlink:href="#linear-gradient"/>
    <linearGradient id="linear-gradient-3" x1="79.84" y1="51.73" x2="86.85" y2="51.73" xlink:href="#linear-gradient"/>
  </defs>
  <g id="Layer_1-2" data-name="Layer 1">
    <g>
      <text class="cls-2" transform="translate(0 33.65)"><tspan x="0" y="0" xml:space="preserve">CU    MS</tspan></text>
      <g>
        <path class="cls-4" d="M114.07,39.59v20.48c0,1.88-1.53,3.41-3.41,3.41H56.15c-1.88,0-3.41-1.53-3.41-3.41v-20.48c0-1.88,1.53-3.41,3.41-3.41h-.81c.57,0,1.15-.17,1.6-.52,1.15-.9,1.73-2.35,1.73-3.92s-.58-3.02-1.73-3.92c-.45-.35-1.03-.52-1.6-.52h.81c-1.88,0-3.41-1.53-3.41-3.41V3.41c0-1.88,1.53-3.41,3.41-3.41h20.44c1.88,0,3.41,1.53,3.41,3.41V39.59c0,1.47,1.04,2.78,2.5,3,.3,.04,.6,.07,.91,.07s.61-.02,.91-.07c1.45-.22,2.5-1.53,2.5-3h0c0-1.88,1.53-3.41,3.41-3.41h20.44c1.88,0,3.41,1.53,3.41,3.41Z"/>
        <path class="cls-1" d="M56.64,36.18c-.16,0-.23-.19-.11-.29,1.22-1.01,4.66-4.52-.38-8.58-.55-.44,23.85,0,23.85,0v8.87h-23.36Z"/>
        <path class="cls-3" d="M86.96,40.47c0-.15-.15-.22-.23-.11-.49,.74-1.71,2.3-3.32,2.24-1.01-.03-2.17-.71-3.39-2.62-.35-.54,0,23.49,0,23.49h6.94v-23.01Z"/>
      </g>
    </g>
  </g>
</svg>