<?xml version="1.0" encoding="UTF-8"?>
<svg id="Layer_2" data-name="Layer 2" xmlns="http://www.w3.org/2000/svg" viewBox="0 0 31.17 41">
  <defs>
    <style>
      .cls-1 {
        fill: none;
        stroke: #c2c4c4;
        stroke-miterlimit: 10;
      }
    </style>
  </defs>
  <g id="Layer_1-2" data-name="Layer 1">
    <g>
      <path class="cls-1" d="M2.23,4.65H28.95c1.03,0,1.82,.89,1.72,1.91l-3.43,32.4c-.09,.88-.83,1.54-1.72,1.54H5.35c-.89,0-1.63-.68-1.72-1.56L.51,6.54c-.1-1.01,.7-1.89,1.72-1.89Z"/>
      <path class="cls-1" d="M6.54,3.27l1.22-1.96c.32-.51,.87-.81,1.47-.81h12.96c.65,0,1.25,.37,1.55,.96l.9,1.82"/>
      <g>
        <line class="cls-1" x1="5.82" y1="16.4" x2="7.71" y2="31.56"/>
        <line class="cls-1" x1="15.7" y1="16.35" x2="15.47" y2="31.62"/>
        <line class="cls-1" x1="25.35" y1="16.4" x2="23.46" y2="31.56"/>
      </g>
    </g>
  </g>
</svg>