<?xml version="1.0" encoding="UTF-8"?>
<svg id="Layer_2" data-name="Layer 2" xmlns="http://www.w3.org/2000/svg" viewBox="0 0 63.43 88.14">
  <defs>
    <style>
      .cls-1 {
        stroke-miterlimit: 10;
      }

      .cls-1, .cls-2 {
        fill: none;
        stroke: #000;
        stroke-width: 3px;
      }

      .cls-2 {
        stroke-linecap: round;
        stroke-linejoin: round;
      }
    </style>
  </defs>
  <g id="Layer_1-2" data-name="Layer 1">
    <path class="cls-2" d="M6.02,62.78H57.4c3.22,0,5.43-3.29,4.17-6.25-.98-2.29-1.9-4.89-2.64-7.77-1.89-7.34-1.92-13.81-1.51-18.46,.33-3.82-.07-7.69-1.39-11.29C52.26,8.83,42.43,1.5,31.02,1.5,21.37,1.5,12.91,6.64,8.25,14.33c-3.18,5.24-4.05,11.52-3,17.56,.69,3.96,1.04,9.62-.56,16.05-.83,3.32-1.8,6.18-2.81,8.56-1.27,2.98,.92,6.28,4.15,6.28Z"/>
    <path class="cls-1" d="M21.32,74.89h20.79v1.35c0,5.74-4.66,10.39-10.39,10.39h0c-5.74,0-10.39-4.66-10.39-10.39v-1.35h0Z"/>
  </g>
</svg>