<?xml version="1.0" encoding="UTF-8"?>
<svg id="Layer_2" data-name="Layer 2" xmlns="http://www.w3.org/2000/svg" viewBox="0 0 81 105.38">
  <defs>
    <style>
      .cls-1 {
        fill: #fff;
        font-family: Roboto-Bold, Roboto;
        font-size: 24.98px;
        font-weight: 700;
      }

      .cls-2 {
        fill: #b3b3b3;
        stroke: #b3b3b3;
      }

      .cls-2, .cls-3 {
        stroke-miterlimit: 10;
      }

      .cls-3 {
        fill: #e6e6e6;
        stroke: #e6e6e6;
      }

      .cls-4 {
        fill: #2290ff;
      }
    </style>
  </defs>
  <g id="Layer_1-2" data-name="Layer 1">
    <path class="cls-3" d="M80.5,33.51V100.38c0,2.4-1.79,4.34-4,4.34H4.5c-2.22,0-4-1.95-4-4.34V4.84C.5,2.45,2.28,.5,4.5,.5H44.43c1.93,0,3.82,.65,5.4,1.87l26.73,22.87c2.47,1.9,3.94,4.98,3.94,8.27Z"/>
    <path class="cls-4" d="M.5,72.58H80.5v27.8c0,2.76-2.24,5-5,5H5.5c-2.76,0-5-2.24-5-5v-27.8H.5Z"/>
    <text class="cls-1" transform="translate(16.86 96.66)"><tspan x="0" y="0">PDF</tspan></text>
    <path class="cls-2" d="M48.81,1.61l29.58,25.48c.49,.44,.19,1.26-.47,1.28l-25.32,4.36c-3.31,.12-6.09-2.47-6.21-5.79l1.19-24.76c-.02-.65,.75-1.01,1.23-.57Z"/>
  </g>
</svg>