<?xml version="1.0" encoding="UTF-8"?>
<svg id="Layer_2" data-name="Layer 2" xmlns="http://www.w3.org/2000/svg" viewBox="0 0 70.06 71.39">
  <defs>
    <style>
      .cls-1 {
        fill: none;
        stroke: #4d4d4d;
        stroke-miterlimit: 10;
        stroke-width: 5px;
      }
    </style>
  </defs>
  <g id="Layer_1-2" data-name="Layer 1">
    <path class="cls-1" d="M65.91,41.97l-5.75-3.32c-1.05-.6-1.65-1.72-1.65-2.93v-.04c0-1.21,.61-2.34,1.66-2.95l5.74-3.31c1.58-.92,2.13-2.95,1.21-4.53l-6.68-11.58c-.92-1.59-2.95-2.13-4.53-1.21l-5.75,3.31c-1.05,.61-2.33,.57-3.38-.04-.01,0-.02-.01-.03-.02-1.05-.6-1.72-1.69-1.72-2.9V5.81c0-1.83-1.48-3.31-3.31-3.31h-13.38c-1.83,0-3.31,1.48-3.31,3.31v6.64c0,1.21-.67,2.3-1.72,2.9-.01,.01-.02,.02-.03,.02-1.05,.61-2.33,.65-3.39,.04l-5.73-3.31c-1.58-.92-3.61-.37-4.53,1.21L2.95,24.89c-.92,1.58-.37,3.61,1.21,4.53l5.74,3.31c1.05,.61,1.66,1.74,1.66,2.95v.04c0,1.21-.6,2.33-1.65,2.93l-5.75,3.32c-1.58,.92-2.13,2.95-1.21,4.53l6.68,11.58c.92,1.58,2.95,2.13,4.53,1.21l5.74-3.31c1.05-.61,2.33-.57,3.38,.04,.01,0,.02,.01,.03,.02,1.05,.6,1.72,1.69,1.72,2.9v6.64c0,1.83,1.48,3.31,3.31,3.31h13.38c1.83,0,3.31-1.48,3.31-3.31v-6.64c0-1.21,.67-2.3,1.72-2.9,.01-.01,.02-.02,.03-.02,1.05-.61,2.33-.65,3.38-.04l5.75,3.31c1.58,.92,3.61,.37,4.53-1.21l6.68-11.58c.92-1.58,.37-3.61-1.21-4.53Zm-30.88,5.63c-6.57,0-11.9-5.33-11.9-11.91s5.33-11.9,11.9-11.9,11.91,5.33,11.91,11.9-5.33,11.91-11.91,11.91Z"/>
  </g>
</svg>